<svg width="15" height="16" viewBox="0 0 15 16" fill="none" xmlns="http://www.w3.org/2000/svg">
<g id="Location / undefined / Glyph: undefined" clip-path="url(#clip0_4012_678)">
<path id="Vector" d="M2.71105 1.99724C5.35581 -0.647519 9.64386 -0.647519 12.2886 1.99724C14.9334 4.64201 14.9334 8.93005 12.2886 11.5748L11.3654 12.4878C10.6849 13.1556 9.80206 14.0143 8.71636 15.0639C8.03798 15.7199 6.96169 15.7198 6.28339 15.0638L3.56806 12.4225C3.2268 12.0874 2.94115 11.8049 2.71105 11.5748C0.0662873 8.93005 0.0662873 4.64201 2.71105 1.99724ZM11.4636 2.8222C9.27449 0.633045 5.72516 0.633045 3.53601 2.8222C1.34685 5.01135 1.34685 8.56068 3.53601 10.7498L4.69262 11.8912C5.32955 12.5145 6.13025 13.2926 7.09446 14.2252C7.32056 14.4438 7.67927 14.4439 7.90545 14.2252L10.5459 11.6574C10.9106 11.2994 11.2166 10.9968 11.4636 10.7498C13.6528 8.56068 13.6528 5.01135 11.4636 2.8222ZM7.49984 4.66553C8.78916 4.66553 9.83434 5.71074 9.83434 7.00007C9.83434 8.2894 8.78916 9.33457 7.49984 9.33457C6.21051 9.33457 5.16528 8.2894 5.16528 7.00007C5.16528 5.71074 6.21051 4.66553 7.49984 4.66553ZM7.49984 5.83219C6.85482 5.83219 6.33192 6.35506 6.33192 7.00007C6.33192 7.64508 6.85482 8.16791 7.49984 8.16791C8.14485 8.16791 8.66767 7.64508 8.66767 7.00007C8.66767 6.35506 8.14485 5.83219 7.49984 5.83219Z" fill="#ADB5BD" fill-opacity="0.5"/>
</g>
<defs>
<clipPath id="clip0_4012_678">
<rect width="14" height="15.5559" fill="white" transform="translate(0.5)"/>
</clipPath>
</defs>
</svg>
