<svg width="69" height="49" viewBox="0 0 69 49" fill="none" xmlns="http://www.w3.org/2000/svg">
<g id="Surface" clip-path="url(#clip0_4400_449)">
<path id="path" d="M67.8157 11.319C67.8157 11.319 67.153 6.61719 65.1109 4.54446C62.5256 1.8281 59.6252 1.81719 58.3 1.65355C48.7843 0.966278 34.5109 0.966278 34.5109 0.966278H34.4783C34.4783 0.966278 20.2048 0.966278 10.6891 1.65355C9.3639 1.81719 6.46358 1.8281 3.87828 4.54446C1.8361 6.61719 1.17348 11.319 1.17348 11.319C1.17348 11.319 0.5 16.839 0.5 22.3699V27.5517C0.5 33.0717 1.18435 38.5917 1.18435 38.5917C1.18435 38.5917 1.84696 43.2936 3.88914 45.3663C6.47444 48.0826 9.87444 47.9954 11.3843 48.279C16.8157 48.8026 34.5 48.9663 34.5 48.9663C34.5 48.9663 48.7843 48.9445 58.3 48.2572C59.6252 48.0935 62.5256 48.0826 65.1109 45.3663C67.153 43.2936 67.8157 38.5917 67.8157 38.5917C67.8157 38.5917 68.5 33.0717 68.5 27.5517V22.3699C68.5 16.839 67.8157 11.319 67.8157 11.319Z" fill="black" fill-opacity="0.66"/>
<path id="path_2" d="M27.4824 14.6352V33.8134L45.8511 24.257L27.4824 14.6352Z" fill="#EAEAEA"/>
</g>
<defs>
<clipPath id="clip0_4400_449">
<rect width="68" height="48" fill="white" transform="translate(0.5 0.966278)"/>
</clipPath>
</defs>
</svg>
