<svg width="23" height="23" viewBox="0 0 23 23" fill="none" xmlns="http://www.w3.org/2000/svg">
<g id="Wrapper">
<path id="Shape" fill-rule="evenodd" clip-rule="evenodd" d="M19.708 11.6593C19.708 11.053 19.6536 10.47 19.5525 9.9104H11.5V13.2177H16.1015C15.9032 14.2864 15.3009 15.192 14.3953 15.7982V17.9435H17.1585C18.7753 16.455 19.708 14.2631 19.708 11.6593Z" fill="#4285F4"/>
<path id="Shape_2" fill-rule="evenodd" clip-rule="evenodd" d="M11.5 20.015C13.8085 20.015 15.7439 19.2494 17.1586 17.9435L14.3954 15.7983C13.6297 16.3113 12.6504 16.6144 11.5 16.6144C9.27313 16.6144 7.38824 15.1104 6.7159 13.0895H3.85942V15.3047C5.26628 18.099 8.15774 20.015 11.5 20.015Z" fill="#34A853"/>
<path id="Shape_3" fill-rule="evenodd" clip-rule="evenodd" d="M6.7159 13.0895C6.5449 12.5765 6.44774 12.0285 6.44774 11.465C6.44774 10.9014 6.5449 10.3535 6.7159 9.84047V7.62524H3.85942C3.28035 8.77949 2.95001 10.0853 2.95001 11.465C2.95001 12.8446 3.28035 14.1504 3.85942 15.3047L6.7159 13.0895Z" fill="#FBBC05"/>
<path id="Shape_4" fill-rule="evenodd" clip-rule="evenodd" d="M11.5 6.31549C12.7553 6.31549 13.8824 6.74687 14.7684 7.5941L17.2207 5.1418C15.74 3.76214 13.8046 2.91492 11.5 2.91492C8.15774 2.91492 5.26628 4.83089 3.85942 7.62519L6.7159 9.84042C7.38824 7.81951 9.27313 6.31549 11.5 6.31549Z" fill="#EA4335"/>
</g>
</svg>
