<svg width="18" height="19" viewBox="0 0 18 19" fill="none" xmlns="http://www.w3.org/2000/svg">
<g id="ico-fullscreen">
<path d="M17 1.944H11V3.944H15V7.944H17V1.944Z" fill="#EAEAEA"/>
<path d="M17 11.944H15V15.944H11V17.944H17V11.944Z" fill="#EAEAEA"/>
<path d="M2.99997 7.944V3.944H6.99997V1.944H0.999969V7.944H2.99997Z" fill="#EAEAEA"/>
<path d="M0.999969 11.944V17.944H6.99997V15.944H2.99997V11.944H0.999969Z" fill="#EAEAEA"/>
<path d="M17.5 1.944V1.444H17H11H10.5V1.944V3.944V4.444H11H14.5V7.944V8.444H15H17H17.5V7.944V1.944ZM17.5 11.944V11.444H17H15H14.5V11.944V15.444H11H10.5V15.944V17.944V18.444H11H17H17.5V17.944V11.944ZM2.99997 8.444H3.49997V7.944V4.444H6.99997H7.49997V3.944V1.944V1.444H6.99997H0.999969H0.499969V1.944V7.944V8.444H0.999969H2.99997ZM0.999969 11.444H0.499969V11.944V17.944V18.444H0.999969H6.99997H7.49997V17.944V15.944V15.444H6.99997H3.49997V11.944V11.444H2.99997H0.999969Z" stroke="black" stroke-opacity="0.1"/>
</g>
</svg>
