<svg width="25" height="26" viewBox="0 0 25 26" fill="none" xmlns="http://www.w3.org/2000/svg">
<g id="solar:skateboarding-round-line-duotone">
<g id="Group">
<path id="Vector" d="M3.125 18.2083L3.75833 18.9125C4.14905 19.3466 4.62665 19.6937 5.16017 19.9313C5.69368 20.1689 6.27118 20.2916 6.85521 20.2916H18.1458C18.7299 20.2916 19.3074 20.1689 19.8409 19.9313C20.3744 19.6937 20.852 19.3466 21.2427 18.9125L21.875 18.2083" stroke="white" stroke-width="1.5" stroke-linecap="round"/>
<path id="Vector_2" opacity="0.5" d="M7.29167 23.4166C7.86696 23.4166 8.33333 22.9503 8.33333 22.375C8.33333 21.7997 7.86696 21.3333 7.29167 21.3333C6.71637 21.3333 6.25 21.7997 6.25 22.375C6.25 22.9503 6.71637 23.4166 7.29167 23.4166Z" fill="white"/>
<path id="Vector_3" opacity="0.5" d="M17.7083 23.4166C18.2836 23.4166 18.75 22.9503 18.75 22.375C18.75 21.7997 18.2836 21.3333 17.7083 21.3333C17.133 21.3333 16.6667 21.7997 16.6667 22.375C16.6667 22.9503 17.133 23.4166 17.7083 23.4166Z" fill="white"/>
<path id="Vector_4" d="M19.7917 6.74999C20.9423 6.74999 21.875 5.81725 21.875 4.66666C21.875 3.51607 20.9423 2.58333 19.7917 2.58333C18.6411 2.58333 17.7083 3.51607 17.7083 4.66666C17.7083 5.81725 18.6411 6.74999 19.7917 6.74999Z" stroke="white" stroke-width="1.5"/>
<path id="Vector_5" d="M15.625 17.6875V15.4656C15.6251 15.183 15.563 14.9037 15.4431 14.6477C15.3232 14.3918 15.1485 14.1653 14.9313 13.9844L13.8938 13.1198C13.7169 12.9724 13.5728 12.7898 13.4705 12.5836C13.3682 12.3775 13.31 12.1522 13.2996 11.9223C13.2892 11.6923 13.3269 11.4628 13.4101 11.2482C13.4934 11.0336 13.6205 10.8388 13.7833 10.676L15.5063 8.95313C15.6348 8.82464 15.73 8.66657 15.7833 8.49278C15.8366 8.31899 15.8464 8.13478 15.812 7.95629C15.7775 7.77781 15.6998 7.61049 15.5857 7.46901C15.4716 7.32753 15.3245 7.21621 15.1573 7.14479C14.4979 6.86239 13.78 6.74369 13.0648 6.79883C12.3496 6.85398 11.6583 7.08132 11.05 7.46146L8.85417 8.83333" stroke="white" stroke-width="1.5" stroke-linecap="round"/>
<path id="Vector_6" opacity="0.5" d="M11.4583 15.0833L10.8115 15.7302C10.3594 16.1823 10.1344 16.4073 9.84688 16.5271C9.55938 16.6458 9.23959 16.6458 8.60105 16.6458H7.29167M17.1875 10.9167H20.3125" stroke="white" stroke-width="1.5" stroke-linecap="round"/>
</g>
</g>
</svg>
