<?xml version="1.0" standalone="no"?><!DOCTYPE svg PUBLIC "-//W3C//DTD SVG 1.1//EN" "http://www.w3.org/Graphics/SVG/1.1/DTD/svg11.dtd"><svg t="1709865309785" class="icon" viewBox="0 0 1024 1024" version="1.1" xmlns="http://www.w3.org/2000/svg" p-id="1717" xmlns:xlink="http://www.w3.org/1999/xlink" width="200" height="200"><path d="M512.3 957c-60.3 0-118.7-11.8-173.8-35.1-53.2-22.5-100.9-54.7-141.9-95.7s-73.2-88.7-95.7-141.9c-23.3-55.1-35.1-113.5-35.1-173.8 0-60.3 11.8-118.7 35.1-173.8 22.5-53.2 54.7-100.9 95.7-141.9s88.7-73.2 141.9-95.7C393.5 75.8 452 64 512.3 64c60.3 0 118.7 11.8 173.8 35.1 53.2 22.5 100.9 54.7 141.9 95.7s73.2 88.7 95.7 141.9c23.3 55.1 35.1 113.5 35.1 173.8 0 60.3-11.8 118.7-35.1 173.8-22.5 53.2-54.7 100.9-95.7 141.9s-88.7 73.2-141.9 95.7C631 945.2 572.5 957 512.3 957z m0-849.2c-222 0-402.7 180.6-402.7 402.7 0 222 180.6 402.7 402.7 402.7S915 732.6 915 510.5c0-222-180.7-402.7-402.7-402.7z" fill="#231815" p-id="1718"></path><path d="M425 709.2c-12.3 0-22.3-10-22.3-22.3V337.8c0-12.3 10-22.3 22.3-22.3s22.3 10 22.3 22.3v349.1c0 12.3-10 22.3-22.3 22.3zM599.5 705.5c-12.3 0-22.3-10-22.3-22.3V334.1c0-12.3 10-22.3 22.3-22.3s22.3 10 22.3 22.3v349.1c0 12.3-10 22.3-22.3 22.3z" p-id="1719"></path></svg>