<svg width="25" height="26" viewBox="0 0 25 26" fill="none" xmlns="http://www.w3.org/2000/svg">
<g id="Group 844">
<path id="Vector" d="M3.92077 5.35786L3.67647 5.22106L3.43217 5.35786L1.30241 6.55053L2.49508 4.42077L2.63189 4.17647L2.49508 3.93217L1.30241 1.80241L3.43217 2.99508L3.67647 3.13189L3.92077 2.99508L6.05053 1.80241L4.85786 3.93217L4.72106 4.17647L4.85786 4.42077L6.05053 6.55053L3.92077 5.35786ZM21.0792 20.6421L21.3235 20.7789L21.5678 20.6421L23.6976 19.4495L22.5049 21.5792L22.3681 21.8235L22.5049 22.0678L23.6976 24.1976L21.5678 23.0049L21.3235 22.8681L21.0792 23.0049L18.9495 24.1976L20.1421 22.0678L20.2789 21.8235L20.1421 21.5792L18.9495 19.4495L21.0792 20.6421ZM21.5678 2.99508L23.6976 1.80241L22.5049 3.93217L22.3681 4.17647L22.5049 4.42077L23.6976 6.55053L21.5678 5.35786L21.3235 5.22106L21.0792 5.35786L18.9495 6.55053L20.1421 4.42077L20.2789 4.17647L20.1421 3.93217L18.9495 1.80241L21.0792 2.99508L21.3235 3.13189L21.5678 2.99508Z" fill="white" stroke="#4527A0"/>
</g>
</svg>
